<svg width="264" height="68" viewBox="0 0 264 68" fill="none" xmlns="http://www.w3.org/2000/svg">
<path d="M45 30V24V18V12V6H51V12V18V24V30H45ZM21 30V24V18V12V6H27V12V18V24V30H21ZM33 18V12V6H39V12V18H33ZM45 6H39V0H45V6ZM33 6H27V0H33V6ZM69 24H75V30H69H63V24H69ZM75 24V18V12V6H81V12V18V24H75ZM63 24H57V18V12V6H63V12V18V24ZM75 6H69H63V0H69H75V6ZM99 24H105V30H99H93V24H99ZM105 24V18V12V6H111V12V18V24H105ZM93 24H87V18V12V6H93V12V18V24ZM105 6H99H93V0H99H105V6ZM135 30V24V18H129V12H135V6V0H141V6V12V18V24V30H135ZM117 30V24V18V12V6V0H123V6H129V12H123V18V24V30H117ZM159 24H165V30H159H153V24H159ZM153 24H147V18V12V6H153V12V18V24ZM159 0H165V6H159H153V0H159ZM183 30V24H177V30H171V24V18V12V6H177V12V18H183V12V6H189V12V18V24V30H183ZM183 6H177V0H183V6ZM201 30V24V18V12V6H195V0H201H207H213V6H207V12V18V24V30H201ZM231 24H237V30H231H225V24H231ZM237 24V18H243V24H237ZM237 18H231H225V12H231H237V18ZM225 12H219V6H225V12ZM231 0H237V6H231H225V0H231ZM18 68V62H24V68H18ZM6 68V62H12V68H6ZM24 62V56V50V44V38H30V44V50V56V62H24ZM18 62H12V56V50H18V56V62ZM6 62H0V56V50V44V38H6V44V50V56V62ZM48 68H42H36V62H42V56V50V44H36V38H42H48H54V44H48V50V56V62H54V68H48ZM66 68V62V56V50V44H60V38H66H72H78V44H72V50V56V62V68H66ZM96 68V62V56H90V62V68H84V62V56V50V44V38H90V44V50H96V44V38H102V44V50V56V62V68H96ZM150 68V62V56H156V62V68H150ZM138 68V62V56V50V44V38H144H150V44H156V50H150V44H144V50H150V56H144V62V68H138ZM174 62H180V68H174H168V62H174ZM180 62V56V50V44H186V50V56V62H180ZM168 62H162V56V50V44H168V50V56V62ZM180 44H174H168V38H174H180V44ZM204 62H210V68H204H198V62H204ZM198 62H192V56V50V44H198V50V56V62ZM204 38H210V44H204H198V38H204ZM228 68V62V56H234V62V68H228ZM216 68V62V56V50V44V38H222V44V50H228V56H222V62V68H216ZM228 50V44V38H234V44V50H228ZM252 62H258V68H252H246V62H252ZM258 62V56H264V62H258ZM258 56H252H246V50H252H258V56ZM246 50H240V44H246V50ZM252 38H258V44H252H246V38H252Z" fill="#343335"/>
</svg>
