<svg width="468" height="84" viewBox="0 0 468 84" fill="none" xmlns="http://www.w3.org/2000/svg">
<path d="M48 24V12H60V24H48ZM0 84V0H48V12H12V24H48V36H12V84H0ZM72 72V24H84V72H72ZM84 84V72H120V24H132V84H84ZM192 84V36H204V84H192ZM144 84V24H192V36H156V84H144ZM252 84V72H264V84H252ZM240 72V60H252V72H240ZM240 48V36H252V48H240ZM252 36V24H264V36H252ZM216 84V0H228V48H240V60H228V84H216ZM324 84V36H336V84H324ZM324 24V12H336V24H324ZM276 84V0H324V12H288V24H324V36H288V84H276ZM360 84V72H396V84H360ZM396 72V60H408V72H396ZM348 72V36H360V72H348ZM396 48V36H408V48H396ZM360 36V24H396V36H360ZM456 84V72H468V84H456ZM444 72V60H456V72H444ZM444 48V36H456V48H444ZM456 36V24H468V36H456ZM420 84V0H432V48H444V60H432V84H420Z" fill="black"/>
</svg>
