<svg width="203" height="32" viewBox="0 0 203 32" fill="none" xmlns="http://www.w3.org/2000/svg">
<path d="M18 9V4.5H22.5V9H18ZM0 31.5V0H18V4.5H4.5V9H18V13.5H4.5V31.5H0ZM27 27V9H31.5V27H27ZM31.5 31.5V27H45V9H49.5V31.5H31.5ZM72 31.5V13.5H76.5V31.5H72ZM54 31.5V9H72V13.5H58.5V31.5H54ZM94.5 31.5V27H99V31.5H94.5ZM90 27V22.5H94.5V27H90ZM90 18V13.5H94.5V18H90ZM94.5 13.5V9H99V13.5H94.5ZM81 31.5V0H85.5V18H90V22.5H85.5V31.5H81ZM121.5 31.5V13.5H126V31.5H121.5ZM121.5 9V4.5H126V9H121.5ZM103.5 31.5V0H121.5V4.5H108V9H121.5V13.5H108V31.5H103.5ZM135 31.5V27H148.5V31.5H135ZM148.5 27V22.5H153V27H148.5ZM130.5 27V13.5H135V27H130.5ZM148.5 18V13.5H153V18H148.5ZM135 13.5V9H148.5V13.5H135ZM171 31.5V27H175.5V31.5H171ZM166.5 27V22.5H171V27H166.5ZM166.5 18V13.5H171V18H166.5ZM171 13.5V9H175.5V13.5H171ZM157.5 31.5V0H162V18H166.5V22.5H162V31.5H157.5ZM180 31.5V27H198V31.5H180ZM198 27V22.5H202.5V27H198ZM184.5 22.5V18H198V22.5H184.5ZM180 18V13.5H184.5V18H180ZM184.5 13.5V9H202.5V13.5H184.5Z" fill="black"/>
</svg>
