<svg width="378" height="228" viewBox="0 0 378 228" fill="none" xmlns="http://www.w3.org/2000/svg">
<path d="M27 36V18H45V36H27ZM81 72H99V90H81H63H45H27V72H45V54H63V72H81ZM63 54V36H81V54H63ZM81 36V18H99V36H81ZM81 18H63H45V0H63H81V18ZM171 90V72V54H153H135V36H153H171V18V0H189V18V36V54V72V90H171ZM135 36H117V18V0H135V18V36ZM207 90V72V54V36V18V0H225H243H261V18H279V36H261V18H243H225V36H243H261V54H243H225V72V90H207ZM333 90V72V54H351V72V90H333ZM297 90V72V54H315V72V90H297ZM333 54H315V36H333V54ZM333 36V18V0H351V18V36H333ZM315 36H297V18V0H315V18V36ZM36 228V210V192H54V210V228H36ZM0 228V210V192V174V156V138H18H36V156H54V174H36V156H18V174H36V192H18V210V228H0ZM108 210H126V228H108H90V210H108ZM126 210V192V174V156H144V174V192V210H126ZM90 210H72V192V174V156H90V174V192V210ZM126 156H108H90V138H108H126V156ZM198 210H216V228H198H180V210H198ZM180 210H162V192V174V156H180V174V192V210ZM198 138H216V156H198H180V138H198ZM270 228V210V192H288V210V228H270ZM234 228V210V192V174V156V138H252V156V174H270V192H252V210V228H234ZM270 174V156V138H288V156V174H270ZM342 210H360V228H342H324V210H342ZM360 210V192H378V210H360ZM360 192H342H324V174H342H360V192ZM324 174H306V156H324V174ZM342 138H360V156H342H324V138H342Z" fill="black"/>
</svg>
